# xmcd
#
# Track frame offsets:
#	180
#	10267
#	25275
#	43420
#	53055
#	66412
#	76492
#	87897
#	99290
#	116040
#
# Disc length: 1745 seconds
# Revision: 0
# Processed by: cddbd v1.5.2PL0 Copyright (c) Steve Scherf et al.
# Submitted via: dBpowerAMP V12.0
#
DISCID=7f06cf0a
DTITLE=Morning After - On The Road Again
DYEAR=1900
DGENRE=Neo-Rockabilly
TTITLE0=The Wreck Of The Old '97
TTITLE1=Jesse James
TTITLE2=Sixteen Tons
TTITLE3=Tennessee
TTITLE4=I Saw The Light
TTITLE5=Tennessee Border
TTITLE6=Midnight Train
TTITLE7=Wait For The Light
TTITLE8=Greenback Dollar
TTITLE9=On The Road Again
EXTD=
EXTT0=
EXTT1=
EXTT2=
EXTT3=
EXTT4=
EXTT5=
EXTT6=
EXTT7=
EXTT8=
EXTT9=
PLAYORDER=
